<svg fill="none" height="14" viewBox="0 0 14 14" width="14" xmlns="http://www.w3.org/2000/svg" xmlns:xlink="http://www.w3.org/1999/xlink"><clipPath id="a"><path d="m0 0h14v14h-14z"/></clipPath><g clip-path="url(#a)" stroke="#000001" stroke-linecap="round" stroke-linejoin="round"><path d="m12.5.5h-11c-.552285 0-1 .447715-1 1v11c0 .5523.447715 1 1 1h11c.5523 0 1-.4477 1-1v-11c0-.552285-.4477-1-1-1z"/><path d="m3 4.5h5"/><path d="m9.5 6c.8284 0 1.5-.67157 1.5-1.5s-.6716-1.5-1.5-1.5c-.82843 0-1.5.67157-1.5 1.5s.67157 1.5 1.5 1.5z"/><path d="m11 9.5h-3"/><path d="m5 9.5h-2"/><path d="m6.5 11c.82843 0 1.5-.6716 1.5-1.5 0-.82843-.67157-1.5-1.5-1.5s-1.5.67157-1.5 1.5c0 .8284.67157 1.5 1.5 1.5z"/></g></svg>